#N canvas -8 -8 1920 997 12;
#X obj 341 285 metro;
#X obj 10 20 tgl 15 0 empty empty On/Off 17 7 0 10 -262144 -1 -1 0
1;
#X obj 303 354 random 255;
#X obj 397 355 random 255;
#X obj 493 354 random 255;
#X obj 83 20 nbx 5 14 -1e+037 1e+037 0 0 empty empty Speed 0 -8 0 10
-262144 -1 -1 0 256;
#X obj 122 122 cnv 15 100 60 empty empty empty 20 12 0 14 -233017 -66577
0;
#X obj 290 440 outlet;
#X obj 397 441 outlet;
#X obj 491 442 outlet;
#X obj 420 82 inlet;
#X obj 470 82 inlet;
#X obj 9 52 nbx 5 14 -1e+037 1e+037 0 0 empty empty empty 0 -8 0 10
-262144 -1 -1 0 256;
#X obj 67 52 nbx 5 14 -1e+037 1e+037 0 0 empty empty empty 0 -8 0 10
-262144 -1 -1 0 256;
#X obj 125 52 nbx 5 14 -1e+037 1e+037 0 0 empty empty empty 0 -8 0
10 -262144 -1 -1 0 256;
#X obj 558 83 inlet;
#X obj 602 82 inlet;
#X obj 646 82 inlet;
#X obj 9 75 nbx 5 14 -1e+037 1e+037 0 0 empty empty empty 0 -8 0 10
-204786 -1 -1 0 256;
#X obj 67 75 nbx 5 14 -1e+037 1e+037 0 0 empty empty empty 0 -8 0 10
-204786 -1 -1 0 256;
#X obj 125 75 nbx 5 14 -1e+037 1e+037 0 0 empty empty empty 0 -8 0
10 -204786 -1 -1 0 256;
#X connect 0 0 2 0;
#X connect 0 0 3 0;
#X connect 0 0 4 0;
#X connect 1 0 0 0;
#X connect 2 0 18 0;
#X connect 3 0 19 0;
#X connect 4 0 20 0;
#X connect 5 0 0 1;
#X connect 10 0 1 0;
#X connect 11 0 5 0;
#X connect 12 0 2 1;
#X connect 13 0 3 1;
#X connect 14 0 4 1;
#X connect 15 0 12 0;
#X connect 16 0 13 0;
#X connect 17 0 14 0;
#X connect 18 0 7 0;
#X connect 19 0 8 0;
#X connect 20 0 9 0;
#X coords 0 -1 1 1 200 100 1 0 0;
